<svg xmlns="http://www.w3.org/2000/svg" width="820" height="400" viewBox="0 0 820 400" role="img" aria-labelledby="t d">
<title id="t">How a hub repeats a signal</title>
<desc id="d">A signal from PC1 entering a hub on Fa0/1 is flooded out of every other port, reaching PC2, PC3 and PC4 alike.</desc>
<defs>
 <marker id="as" markerWidth="9" markerHeight="9" refX="8" refY="4.5" orient="auto"><path d="M0,0 L9,4.5 L0,9 Z" fill="#87A878"/></marker>
 <marker id="al" markerWidth="9" markerHeight="9" refX="8" refY="4.5" orient="auto"><path d="M0,0 L9,4.5 L0,9 Z" fill="#B8A9C9"/></marker>
</defs>
<style>
 text{font-family:'Segoe UI',system-ui,-apple-system,Roboto,Arial,sans-serif}
 .dev{fill:#87A878;fill-opacity:.18;stroke:#87A878;stroke-width:2}
 .host{fill:#B8A9C9;fill-opacity:.18;stroke:#B8A9C9;stroke-width:2}
 .dim{fill:#B8A9C9;fill-opacity:.07;stroke:#B8A9C9;stroke-width:2;stroke-dasharray:7 5}
 .ext{fill:#B8A9C9;fill-opacity:.07;stroke:#B8A9C9;stroke-width:2;stroke-dasharray:7 5}
 .chip{fill:#87A878;fill-opacity:.12;stroke:none}
 .chipl{fill:#B8A9C9;fill-opacity:.12;stroke:none}
 .nd{font-size:16px;font-weight:600;fill:#87A878}
 .nh{font-size:16px;font-weight:600;fill:#B8A9C9}
 .el{font-size:12px;fill:#87A878}
 .elh{font-size:12px;fill:#B8A9C9}
 .note{font-size:12.5px;fill:#B8A9C9}
 .nt{font-size:13px;font-weight:600;fill:#B8A9C9}
</style>
<rect class="host" x="325" y="20" width="150" height="48" rx="7"/>
<text class="nh" x="400" y="50" text-anchor="middle">PC1</text>
<line x1="400" y1="68" x2="400" y2="146" stroke="#B8A9C9" stroke-width="2" marker-end="url(#al)"/>
<text class="elh" x="412" y="102">Fa0 → Fa0/1</text>
<text class="elh" x="412" y="118">signal in</text>

<rect class="dev" x="335" y="150" width="130" height="52" rx="7"/>
<text class="nd" x="400" y="182" text-anchor="middle">Hub</text>

<line x1="368" y1="202" x2="146" y2="294" stroke="#87A878" stroke-width="2" marker-end="url(#as)"/>
<line x1="400" y1="202" x2="400" y2="294" stroke="#87A878" stroke-width="2" marker-end="url(#as)"/>
<line x1="432" y1="202" x2="654" y2="294" stroke="#87A878" stroke-width="2" marker-end="url(#as)"/>

<text class="el" x="244" y="232" text-anchor="end">Fa0/2 → Fa0</text>
<text class="el" x="244" y="248" text-anchor="end">flooded out</text>
<text class="el" x="412" y="240">Fa0/3 → Fa0</text>
<text class="el" x="412" y="256">flooded out</text>
<text class="el" x="576" y="240">Fa0/4 → Fa0</text>
<text class="el" x="576" y="256">flooded out</text>

<rect class="host" x="45" y="300" width="150" height="48" rx="7"/>
<text class="nh" x="120" y="330" text-anchor="middle">PC2</text>
<rect class="host" x="325" y="300" width="150" height="48" rx="7"/>
<text class="nh" x="400" y="330" text-anchor="middle">PC3</text>
<rect class="host" x="605" y="300" width="150" height="48" rx="7"/>
<text class="nh" x="680" y="330" text-anchor="middle">PC4</text>

<text class="note" x="410" y="382" text-anchor="middle" fill-opacity=".85">A hub keeps no table. It repeats every incoming signal out of all other ports, so all four hosts share one collision domain.</text>
</svg>
